<?xml version="1.0" encoding="UTF-8" standalone="no"?>
<!DOCTYPE svg PUBLIC "-//W3C//DTD SVG 1.1//EN" "http://www.w3.org/Graphics/SVG/1.1/DTD/svg11.dtd">
<svg width="100%" height="100%" viewBox="0 0 256 46" version="1.1" xmlns="http://www.w3.org/2000/svg" xmlns:xlink="http://www.w3.org/1999/xlink" xml:space="preserve" xmlns:serif="http://www.serif.com/" style="fill-rule:evenodd;clip-rule:evenodd;stroke-linecap:round;stroke-linejoin:round;stroke-miterlimit:1.5;">
    <g transform="matrix(1,0,0,1,-31023.5,-17458.4)">
        <g transform="matrix(1.00898,0,0,1.2406,12523.3,-1689.66)">
            <g transform="matrix(0.423246,0,0,0.322138,16650,13206)">
                <path d="M4022,7028.76C4008.62,7028.39 4000.1,7026.82 3994.04,7020.34C3986.04,7011.8 3986.04,6998.72 3986.04,6975.2C3986.04,6951.68 3986.04,6938.6 3994.04,6930.06C4000.1,6923.58 4008.62,6922.02 4022,6921.64C4022.71,6921.56 4023.43,6921.52 4024.16,6921.52L4539.91,6921.52C4540.63,6921.52 4541.36,6921.56 4542.07,6921.64C4555.45,6922.02 4563.96,6923.58 4570.03,6930.06C4578.02,6938.6 4578.02,6951.68 4578.02,6975.2C4578.02,6998.72 4578.02,7011.8 4570.03,7020.34C4563.96,7026.82 4555.45,7028.39 4542.07,7028.76C4541.36,7028.84 4540.63,7028.88 4539.91,7028.88L4024.16,7028.88C4023.43,7028.88 4022.71,7028.84 4022,7028.76Z" style="fill:rgb(21,159,228);fill-opacity:0.4;stroke:rgb(21,159,228);stroke-opacity:0.9;stroke-width:6.75px;"/>
            </g>
        </g>
        <g transform="matrix(1.00898,0,0,1.2406,12523.3,-1689.66)">
            <g transform="matrix(1.07371,0,0,0.873248,18151.3,13613.7)">
                <path d="M209.621,2104.36L209.621,2105.96C209.685,2107.23 209.945,2107.99 210.399,2108.25C210.561,2108.35 210.853,2108.4 211.275,2108.4C211.729,2108.4 212.053,2108.38 212.248,2108.35C212.604,2108.28 212.831,2108.15 212.929,2107.96C213.123,2107.6 213.237,2107.07 213.269,2106.35C213.334,2105.38 213.367,2104.55 213.367,2103.87C213.367,2102.12 213.302,2100.68 213.172,2099.54C213.107,2098.99 213.01,2098.62 212.88,2098.42C212.815,2098.33 212.669,2098.24 212.442,2098.18C212.248,2098.12 212.102,2098.08 212.004,2098.08C211.939,2098.08 211.842,2098.07 211.712,2098.06C211.583,2098.04 211.485,2098.03 211.421,2098.03C211.388,2098.03 211.323,2098.04 211.226,2098.06C211.129,2098.07 211.048,2098.08 210.983,2098.08C210.691,2098.08 210.496,2098.1 210.399,2098.13C210.269,2098.2 210.139,2098.28 210.01,2098.38C209.88,2098.57 209.799,2098.78 209.767,2099.01C209.702,2099.27 209.669,2099.51 209.669,2099.74L209.669,2102.46C209.669,2102.69 209.661,2103.01 209.645,2103.43C209.629,2103.86 209.621,2104.16 209.621,2104.36ZM205.194,2111.41L205.194,2104.31C205.161,2103.63 205.145,2102.61 205.145,2101.24C205.145,2100.11 205.177,2098.38 205.242,2096.04C205.242,2095.52 205.258,2095.16 205.291,2094.97C205.356,2094.51 205.583,2094.22 205.972,2094.09C206.231,2094.03 207.188,2093.95 208.842,2093.85L209.961,2093.85C210.869,2093.85 211.842,2093.93 212.88,2094.09C213.042,2094.13 213.326,2094.17 213.731,2094.22C214.137,2094.26 214.437,2094.3 214.631,2094.34C214.923,2094.4 215.329,2094.51 215.848,2094.68C216.561,2094.9 217.064,2095.33 217.356,2095.94C217.55,2096.33 217.664,2096.66 217.696,2096.91L217.696,2097.21C217.761,2097.66 217.794,2098.02 217.794,2098.28C217.794,2098.44 217.785,2098.71 217.769,2099.08C217.753,2099.45 217.745,2099.74 217.745,2099.93L217.745,2100.22C217.745,2100.29 217.753,2100.39 217.769,2100.51C217.785,2100.64 217.794,2100.74 217.794,2100.81C217.891,2104.12 217.939,2105.87 217.939,2106.06C217.939,2107.07 217.842,2107.88 217.648,2108.49C217.291,2109.5 216.902,2110.23 216.48,2110.68C216.058,2111.14 215.426,2111.59 214.583,2112.05C214.031,2112.3 213.561,2112.43 213.172,2112.43L211.372,2112.43C211.145,2112.43 210.902,2112.47 210.642,2112.53C210.35,2112.6 210.188,2112.64 210.156,2112.68C210.123,2112.71 210.075,2112.79 210.01,2112.92L209.961,2112.97C209.929,2113.03 209.912,2113.15 209.912,2113.31C209.88,2113.57 209.839,2114.36 209.791,2115.67C209.742,2116.98 209.637,2117.82 209.475,2118.18C209.312,2118.5 208.891,2118.66 208.21,2118.66C208.08,2118.66 207.894,2118.67 207.65,2118.69C207.407,2118.7 207.204,2118.71 207.042,2118.71C206.426,2118.71 205.988,2118.64 205.729,2118.51C205.502,2118.42 205.356,2118.09 205.291,2117.54C205.258,2116.86 205.234,2115.78 205.218,2114.28C205.202,2112.79 205.194,2111.83 205.194,2111.41Z" style="fill:rgb(209,240,255);fill-rule:nonzero;"/>
                <path d="M224.896,2098.08C224.507,2098.08 224.248,2098.12 224.118,2098.18C224.118,2098.18 224.021,2098.28 223.923,2098.38C223.794,2098.57 223.712,2098.78 223.68,2099.01C223.583,2099.59 223.534,2100.47 223.534,2101.63L223.534,2102.46C223.534,2102.66 223.526,2102.95 223.51,2103.34C223.494,2103.73 223.485,2104.02 223.485,2104.21L223.485,2105.19C223.485,2105.35 223.494,2105.53 223.51,2105.72C223.526,2105.91 223.534,2106.05 223.534,2106.11C223.599,2107.28 223.858,2107.99 224.312,2108.25C224.507,2108.35 224.718,2108.4 224.945,2108.4L225.431,2108.4C225.756,2108.4 225.999,2108.38 226.161,2108.35C226.194,2108.35 226.242,2108.34 226.307,2108.32C226.372,2108.31 226.421,2108.3 226.453,2108.3C226.518,2108.3 226.583,2108.27 226.648,2108.2C226.712,2108.17 226.777,2108.09 226.842,2107.96C227.037,2107.6 227.15,2107.07 227.183,2106.35C227.215,2105.87 227.231,2105.04 227.231,2103.87C227.231,2101.83 227.183,2100.39 227.085,2099.54C227.021,2098.99 226.923,2098.62 226.794,2098.42C226.664,2098.26 226.404,2098.15 226.015,2098.08C225.853,2098.05 225.561,2098.03 225.139,2098.03C225.107,2098.03 225.067,2098.04 225.018,2098.06C224.969,2098.07 224.929,2098.08 224.896,2098.08ZM231.658,2098.28C231.658,2098.18 231.65,2098.07 231.634,2097.94C231.618,2097.81 231.61,2097.69 231.61,2097.6C231.61,2097.66 231.618,2097.79 231.634,2097.99C231.65,2098.18 231.658,2098.34 231.658,2098.47L231.658,2098.28ZM223.729,2113.99C223.729,2114.06 223.721,2114.14 223.704,2114.23C223.688,2114.33 223.68,2114.4 223.68,2114.43C223.615,2116.63 223.518,2117.88 223.388,2118.18C223.226,2118.5 222.804,2118.66 222.123,2118.66C221.994,2118.66 221.799,2118.67 221.539,2118.69C221.28,2118.7 221.069,2118.71 220.907,2118.71C220.291,2118.71 219.853,2118.64 219.594,2118.51C219.399,2118.42 219.269,2118.09 219.204,2117.54C219.172,2116.86 219.148,2115.78 219.131,2114.28C219.115,2112.79 219.107,2111.83 219.107,2111.41C219.107,2111.19 219.099,2110.81 219.083,2110.29C219.067,2109.78 219.058,2109.39 219.058,2109.13C219.058,2108.8 219.067,2108.33 219.083,2107.72C219.099,2107.1 219.107,2106.63 219.107,2106.3L219.107,2104.26C219.042,2102.9 219.01,2101.89 219.01,2101.24C219.01,2100.73 219.018,2100.18 219.034,2099.59C219.05,2099.01 219.075,2098.37 219.107,2097.67C219.139,2096.97 219.156,2096.43 219.156,2096.04C219.156,2095.52 219.172,2095.16 219.204,2094.97C219.269,2094.51 219.496,2094.22 219.885,2094.09C220.145,2094 221.085,2093.91 222.707,2093.85L223.875,2093.85C224.783,2093.85 225.756,2093.93 226.794,2094.09C226.956,2094.13 227.231,2094.17 227.621,2094.22C228.01,2094.26 228.302,2094.3 228.496,2094.34C228.788,2094.4 229.194,2094.51 229.712,2094.68C230.491,2094.94 231.01,2095.36 231.269,2095.94C231.561,2096.49 231.707,2097.24 231.707,2098.18C231.707,2098.34 231.699,2098.6 231.683,2098.96C231.667,2099.32 231.658,2099.57 231.658,2099.74L231.658,2100.95C231.756,2103.78 231.804,2105.2 231.804,2105.23C231.804,2105.82 231.788,2106.22 231.756,2106.45C231.658,2107.03 231.367,2107.65 230.88,2108.3C230.848,2108.33 230.807,2108.39 230.758,2108.47C230.71,2108.55 230.669,2108.61 230.637,2108.64C230.41,2108.96 230.28,2109.21 230.248,2109.37C230.215,2109.47 230.199,2109.6 230.199,2109.76L230.199,2110C230.264,2110.26 230.483,2110.63 230.856,2111.1C231.229,2111.57 231.448,2111.85 231.512,2111.95C231.772,2112.4 231.902,2112.99 231.902,2113.7L231.902,2115.4C231.902,2116.76 231.788,2117.64 231.561,2118.03C231.431,2118.29 231.172,2118.42 230.783,2118.42C230.685,2118.42 230.556,2118.41 230.394,2118.39C230.231,2118.38 230.118,2118.37 230.053,2118.37C229.956,2118.37 229.81,2118.36 229.615,2118.35C229.421,2118.33 229.258,2118.32 229.129,2118.32C228.448,2118.32 227.977,2118.26 227.718,2118.13C227.458,2118 227.329,2117.67 227.329,2117.15C227.329,2116.93 227.337,2116.59 227.353,2116.13C227.369,2115.68 227.377,2115.34 227.377,2115.11L227.377,2114.43C227.377,2113.72 227.28,2113.16 227.085,2112.78C227.021,2112.61 226.826,2112.5 226.502,2112.43L225.821,2112.43C225.399,2112.43 224.961,2112.47 224.507,2112.53C224.085,2112.63 223.842,2112.89 223.777,2113.31C223.745,2113.44 223.729,2113.67 223.729,2113.99Z" style="fill:rgb(209,240,255);fill-rule:nonzero;"/>
                <path d="M233.41,2117.49L233.41,2111.75C233.41,2111.69 233.402,2111.61 233.385,2111.51C233.369,2111.41 233.361,2111.35 233.361,2111.32C233.329,2110.63 233.312,2109.61 233.312,2108.25C233.312,2107.7 233.345,2106.87 233.41,2105.77L233.41,2104.41C233.41,2104.15 233.402,2103.77 233.385,2103.26C233.369,2102.76 233.361,2102.38 233.361,2102.12C233.361,2101.93 233.369,2101.62 233.385,2101.2C233.402,2100.78 233.41,2100.47 233.41,2100.27C233.41,2100.08 233.402,2099.84 233.385,2099.57C233.369,2099.29 233.361,2099.12 233.361,2099.06L233.361,2098.03L233.312,2097.94C233.28,2097.48 233.264,2096.88 233.264,2096.14C233.264,2096.04 233.272,2095.89 233.288,2095.7C233.304,2095.5 233.312,2095.34 233.312,2095.21C233.345,2094.63 233.442,2094.29 233.604,2094.19C233.767,2094.03 234.318,2093.95 235.258,2093.95L235.648,2093.95C236.815,2093.95 237.512,2094.08 237.739,2094.34C237.902,2094.53 237.983,2095 237.983,2095.75C237.983,2096.14 237.975,2096.66 237.958,2097.33C237.942,2097.99 237.934,2098.52 237.934,2098.91C237.934,2099.59 237.942,2100.6 237.958,2101.95C237.975,2103.3 237.983,2104.33 237.983,2105.04C237.983,2106.05 237.975,2107.56 237.958,2109.59C237.942,2111.62 237.934,2113.13 237.934,2114.14C237.934,2114.98 237.918,2115.63 237.885,2116.08C237.885,2116.12 237.869,2116.16 237.837,2116.23L237.837,2116.33C237.837,2116.39 237.845,2116.48 237.861,2116.59C237.877,2116.71 237.885,2116.8 237.885,2116.86C237.885,2116.93 237.894,2117.02 237.91,2117.15C237.926,2117.28 237.934,2117.4 237.934,2117.49C237.934,2118.01 237.853,2118.37 237.691,2118.56C237.594,2118.69 237.367,2118.76 237.01,2118.76L236.572,2118.76C236.377,2118.76 236.053,2118.78 235.599,2118.81C235.145,2118.84 234.804,2118.86 234.577,2118.86C234.156,2118.86 233.864,2118.79 233.702,2118.66C233.507,2118.5 233.41,2118.11 233.41,2117.49Z" style="fill:rgb(209,240,255);fill-rule:nonzero;"/>
                <path d="M247.177,2103.87C247.339,2103.26 247.421,2102.72 247.421,2102.27C247.421,2102.17 247.412,2102.03 247.396,2101.85C247.38,2101.68 247.372,2101.52 247.372,2101.39C247.372,2100.06 247.502,2098.1 247.761,2095.5C247.826,2094.95 247.939,2094.61 248.102,2094.48C248.264,2094.35 248.604,2094.29 249.123,2094.29L249.756,2094.29C250.502,2094.29 251.021,2094.34 251.312,2094.43C251.799,2094.6 252.042,2094.97 252.042,2095.55C252.042,2095.85 252.026,2096.12 251.994,2096.38C251.896,2097.03 251.831,2098.46 251.799,2100.66C251.767,2102.25 251.718,2103.14 251.653,2103.34C250.939,2106.45 250.567,2108.07 250.534,2108.2C250.112,2109.82 249.788,2111.17 249.561,2112.24C249.431,2112.86 249.075,2114.33 248.491,2116.67C248.264,2117.48 248.118,2118 248.053,2118.22C247.858,2118.61 247.404,2118.82 246.691,2118.86C246.594,2118.86 246.375,2118.86 246.034,2118.88C245.694,2118.9 245.442,2118.9 245.28,2118.9C245.15,2118.9 245.004,2118.89 244.842,2118.86L244.55,2118.86C244.194,2118.79 243.95,2118.69 243.821,2118.56C243.594,2118.4 243.399,2117.95 243.237,2117.2C243.042,2116.42 242.88,2115.84 242.75,2115.45C242.718,2115.32 242.539,2114.69 242.215,2113.55C242.118,2113.16 241.98,2112.57 241.802,2111.78C241.623,2110.98 241.485,2110.42 241.388,2110.1C241.356,2109.97 241.307,2109.77 241.242,2109.49C241.177,2109.22 241.121,2108.97 241.072,2108.76C241.023,2108.55 240.983,2108.36 240.95,2108.2C240.334,2105.83 239.945,2104.16 239.783,2103.17C239.621,2102.18 239.539,2100.9 239.539,2099.35L239.539,2099.06C239.539,2097.3 239.588,2096.15 239.685,2095.6C239.783,2095.05 240.01,2094.71 240.367,2094.58L240.464,2094.53L240.61,2094.53C241.485,2094.43 242.167,2094.39 242.653,2094.39L242.75,2094.39C243.367,2094.39 243.756,2094.53 243.918,2094.82C244.015,2095.02 244.064,2095.67 244.064,2096.77C244.064,2097.06 244.056,2097.65 244.039,2098.55C244.023,2099.44 244.015,2100.05 244.015,2100.37C244.015,2100.56 244.064,2101.16 244.161,2102.17C244.194,2102.66 244.356,2103.6 244.648,2104.99C244.712,2105.41 244.867,2106.05 245.11,2106.89C245.353,2107.73 245.491,2108.2 245.523,2108.3L245.815,2109.51C245.815,2109.48 245.823,2109.45 245.839,2109.42C245.856,2109.39 245.864,2109.35 245.864,2109.32C245.864,2109.26 245.896,2109.13 245.961,2108.93C246.026,2108.64 246.131,2108.23 246.277,2107.69C246.423,2107.16 246.529,2106.78 246.594,2106.55C246.626,2106.39 246.715,2105.97 246.861,2105.31C247.007,2104.64 247.112,2104.16 247.177,2103.87Z" style="fill:rgb(209,240,255);fill-rule:nonzero;"/>
                <path d="M258.123,2101.1C258.091,2101.46 258.075,2102.01 258.075,2102.75C258.075,2102.98 258.083,2103.34 258.099,2103.82C258.115,2104.31 258.123,2104.67 258.123,2104.89C258.123,2104.99 258.115,2105.13 258.099,2105.31C258.083,2105.49 258.075,2105.62 258.075,2105.72C258.075,2106.01 258.083,2106.31 258.099,2106.62C258.115,2106.93 258.123,2107.12 258.123,2107.18C258.123,2107.24 258.131,2107.33 258.148,2107.45C258.164,2107.56 258.172,2107.63 258.172,2107.67C258.237,2107.93 258.318,2108.09 258.415,2108.15C258.448,2108.19 258.496,2108.2 258.561,2108.2C258.853,2108.3 259.08,2108.35 259.242,2108.35L259.972,2108.35C260.361,2108.35 260.621,2108.33 260.75,2108.3C260.945,2108.27 261.091,2108.22 261.188,2108.15C261.285,2108.09 261.35,2107.93 261.383,2107.67C261.415,2107.41 261.431,2106.86 261.431,2106.01L261.431,2105.53C261.431,2105.33 261.439,2105.01 261.456,2104.55C261.472,2104.1 261.48,2103.78 261.48,2103.58L261.48,2102.8C261.48,2102.48 261.464,2102.02 261.431,2101.44C261.399,2100.86 261.383,2100.4 261.383,2100.08L261.383,2099.01C261.383,2098.94 261.334,2098.81 261.237,2098.62C261.139,2098.46 260.994,2098.34 260.799,2098.28L260.604,2098.28C260.539,2098.24 260.434,2098.23 260.288,2098.23L259.972,2098.23C259.939,2098.23 259.907,2098.22 259.875,2098.2C259.842,2098.19 259.81,2098.18 259.777,2098.18L259.242,2098.18C258.983,2098.24 258.804,2098.29 258.707,2098.33C258.545,2098.39 258.431,2098.55 258.367,2098.81C258.302,2099.17 258.221,2099.93 258.123,2101.1ZM253.648,2108.1L253.648,2106.26C253.648,2106.03 253.664,2105.7 253.696,2105.26C253.729,2104.82 253.745,2104.49 253.745,2104.26C253.745,2104 253.737,2103.6 253.721,2103.05C253.704,2102.49 253.696,2102.07 253.696,2101.78C253.696,2100.71 253.761,2099.46 253.891,2098.03C253.956,2097.39 253.988,2096.95 253.988,2096.72C253.988,2096.23 254.004,2095.94 254.037,2095.85C254.134,2095.39 254.345,2095 254.669,2094.68C255.058,2094.29 255.675,2094.09 256.518,2094.09L257.296,2094.09C257.523,2094.09 257.856,2094.09 258.294,2094.07C258.731,2094.05 259.064,2094.05 259.291,2094.05C259.712,2094.05 260.329,2094.07 261.139,2094.12C261.95,2094.17 262.55,2094.19 262.939,2094.19C263.848,2094.19 264.48,2094.34 264.837,2094.63C265.096,2094.86 265.307,2095.2 265.469,2095.65C265.631,2096.1 265.745,2097.27 265.81,2099.15C265.907,2101.88 265.956,2103.34 265.956,2103.53C265.956,2104.44 265.923,2105.71 265.858,2107.35C265.794,2108.99 265.761,2110.07 265.761,2110.59L265.761,2113.8C265.826,2115.22 265.891,2116.21 265.956,2116.76C265.988,2116.96 266.004,2117.23 266.004,2117.59C266.004,2118.11 265.858,2118.45 265.567,2118.61C265.242,2118.81 264.61,2118.9 263.669,2118.9L262.794,2118.9C262.21,2118.9 261.853,2118.66 261.723,2118.18C261.691,2117.98 261.626,2117.48 261.529,2116.67C261.529,2116.67 261.48,2115.89 261.383,2114.33C261.318,2113.26 261.172,2112.6 260.945,2112.34C260.815,2112.14 260.604,2112.03 260.312,2112L259.68,2112C259.68,2112 259.388,2112.05 258.804,2112.14C258.415,2112.21 258.188,2112.27 258.123,2112.34C258.026,2112.43 257.977,2112.53 257.977,2112.63L257.977,2113.21C257.977,2113.57 257.985,2114.18 258.002,2115.04C258.018,2115.9 258.026,2116.52 258.026,2116.91L258.026,2117.25C258.026,2118 257.912,2118.45 257.685,2118.61C257.458,2118.74 257.134,2118.81 256.712,2118.81C256.583,2118.81 256.356,2118.8 256.031,2118.78C255.707,2118.77 255.464,2118.76 255.302,2118.76C255.042,2118.76 254.75,2118.73 254.426,2118.66C254.199,2118.6 254.021,2118.49 253.891,2118.35C253.761,2118.2 253.664,2117.97 253.599,2117.66C253.534,2117.36 253.494,2117.11 253.477,2116.93C253.461,2116.76 253.453,2116.45 253.453,2116.01L253.453,2115.16C253.453,2114.96 253.445,2114.69 253.429,2114.33C253.412,2113.97 253.404,2113.72 253.404,2113.55C253.404,2113.13 253.437,2112.53 253.502,2111.75L253.502,2110.97C253.502,2110.85 253.51,2110.67 253.526,2110.44C253.542,2110.21 253.55,2110.05 253.55,2109.95L253.55,2109.37C253.55,2109.11 253.583,2108.69 253.648,2108.1ZM257.977,2117.69L257.977,2116.67L257.977,2117.69ZM256.372,2118.76L257.004,2118.76L256.372,2118.76Z" style="fill:rgb(209,240,255);fill-rule:nonzero;"/>
                <path d="M273.983,2097.79C273.075,2097.79 272.442,2097.89 272.085,2098.08C271.729,2098.28 271.55,2098.85 271.55,2099.79C271.55,2100.18 271.567,2100.79 271.599,2101.63C271.631,2102.48 271.648,2103.11 271.648,2103.53L271.648,2105.33C271.648,2107.12 271.664,2108.54 271.696,2109.61C271.761,2111.23 271.842,2112.53 271.939,2113.5C272.004,2114.19 272.134,2114.56 272.329,2114.62C272.458,2114.66 272.702,2114.67 273.058,2114.67C273.091,2114.67 273.139,2114.68 273.204,2114.7C273.269,2114.71 273.334,2114.72 273.399,2114.72L273.642,2114.72C274.356,2114.72 274.842,2114.66 275.102,2114.53C275.361,2114.36 275.523,2113.97 275.588,2113.36C275.685,2112.51 275.815,2112.01 275.977,2111.85C276.237,2111.53 276.869,2111.36 277.875,2111.36L278.118,2111.36C278.572,2111.36 278.88,2111.38 279.042,2111.41C279.496,2111.48 279.772,2111.69 279.869,2112.05C279.999,2112.47 280.064,2113.16 280.064,2114.14C280.064,2115.08 279.999,2115.82 279.869,2116.38C279.675,2117.12 279.367,2117.64 278.945,2117.93C278.556,2118.22 277.842,2118.42 276.804,2118.51C275.799,2118.61 274.745,2118.66 273.642,2118.66L271.696,2118.66C270.561,2118.63 269.718,2118.37 269.167,2117.88C268.745,2117.53 268.388,2117.12 268.096,2116.67C267.804,2116.24 267.594,2115.78 267.464,2115.26C267.367,2114.83 267.285,2114.17 267.221,2113.26C267.156,2111.64 267.123,2110.36 267.123,2109.42C267.123,2108.9 267.139,2108.1 267.172,2107.01C267.204,2105.92 267.221,2105.14 267.221,2104.65C267.221,2104.2 267.196,2103.51 267.148,2102.61C267.099,2101.7 267.075,2101.02 267.075,2100.56C267.075,2099.75 267.107,2099.14 267.172,2098.72C267.237,2098.26 267.383,2097.69 267.61,2097.01C267.772,2096.56 267.983,2096.15 268.242,2095.8C268.502,2095.44 268.875,2095.05 269.361,2094.63C269.75,2094.3 270.139,2094.09 270.529,2094C270.885,2093.9 271.502,2093.85 272.377,2093.85L273.739,2093.85C274.842,2093.85 275.912,2093.9 276.95,2094C277.988,2094.09 278.702,2094.29 279.091,2094.58C279.48,2094.84 279.772,2095.36 279.967,2096.14C280.096,2096.69 280.161,2097.43 280.161,2098.38C280.161,2099.45 280.112,2100.14 280.015,2100.47C279.918,2100.82 279.626,2101.03 279.139,2101.1C278.977,2101.13 278.669,2101.15 278.215,2101.15C277.08,2101.15 276.383,2100.99 276.123,2100.66C275.994,2100.5 275.848,2099.91 275.685,2098.91C275.653,2098.42 275.491,2098.12 275.199,2097.99C274.972,2097.86 274.567,2097.79 273.983,2097.79Z" style="fill:rgb(209,240,255);fill-rule:nonzero;"/>
                <path d="M289.842,2109.81M285.367,2115.55C285.367,2113.89 285.399,2111.93 285.464,2109.66C285.172,2108.75 284.929,2108.09 284.734,2107.67C284.345,2106.69 283.972,2105.67 283.615,2104.6C283.323,2103.73 283.064,2103.05 282.837,2102.56C281.961,2100.58 281.458,2098.75 281.329,2097.06C281.329,2097.03 281.321,2096.97 281.304,2096.89C281.288,2096.81 281.28,2096.75 281.28,2096.72L281.28,2096.14C281.28,2095.81 281.296,2095.57 281.329,2095.41C281.426,2094.89 281.702,2094.55 282.156,2094.39C282.383,2094.29 283.161,2094.24 284.491,2094.24C285.01,2094.24 285.334,2094.29 285.464,2094.39C285.626,2094.48 285.723,2094.66 285.756,2094.92C285.853,2095.41 285.902,2095.96 285.902,2096.57L285.902,2097.84C285.902,2097.94 286.145,2098.7 286.631,2100.13C286.664,2100.19 286.704,2100.29 286.753,2100.42C286.802,2100.55 286.842,2100.66 286.875,2100.76C286.907,2100.86 286.923,2100.94 286.923,2101C286.988,2101.23 287.167,2101.68 287.458,2102.36L287.507,2102.56C287.507,2102.53 287.523,2102.51 287.556,2102.51L287.604,2102.41C287.734,2102.12 287.831,2101.85 287.896,2101.59C287.929,2101.55 287.945,2101.5 287.945,2101.41C287.945,2101.33 287.961,2101.28 287.994,2101.24C287.994,2101.21 288.01,2101.18 288.042,2101.15L288.042,2101.05C288.172,2100.66 288.334,2100.26 288.529,2099.83C288.95,2098.96 289.194,2098.03 289.258,2097.06C289.291,2096.83 289.315,2096.57 289.331,2096.26C289.348,2095.95 289.372,2095.72 289.404,2095.55C289.437,2095.39 289.453,2095.28 289.453,2095.21C289.453,2095.18 289.461,2095.14 289.477,2095.09C289.494,2095.04 289.502,2095 289.502,2094.97C289.567,2094.71 289.664,2094.53 289.794,2094.43C289.891,2094.34 290.053,2094.29 290.28,2094.29L291.107,2094.29C291.269,2094.29 291.472,2094.3 291.715,2094.31C291.958,2094.33 292.169,2094.34 292.348,2094.34L292.664,2094.34C293.248,2094.43 293.604,2094.66 293.734,2095.02L293.783,2095.07L293.783,2095.36C293.783,2095.39 293.775,2095.47 293.758,2095.6C293.742,2095.73 293.734,2095.83 293.734,2095.89L293.734,2096.04C293.669,2096.56 293.637,2097.18 293.637,2097.89C293.637,2099.12 293.572,2100.01 293.442,2100.56C293.248,2101.31 292.794,2102.53 292.08,2104.21C291.788,2104.93 291.48,2105.72 291.156,2106.6C290.831,2107.5 290.41,2108.57 289.891,2109.81C289.891,2113.57 289.858,2115.74 289.794,2116.33C289.696,2117.79 289.437,2118.6 289.015,2118.76L288.821,2118.76C288.139,2118.86 287.604,2118.9 287.215,2118.9C286.891,2118.9 286.664,2118.89 286.534,2118.86C286.177,2118.82 285.902,2118.61 285.707,2118.22C285.48,2117.77 285.367,2116.88 285.367,2115.55Z" style="fill:rgb(209,240,255);fill-rule:nonzero;"/>
                <path d="M308.28,2104.36L308.28,2105.96C308.345,2107.23 308.604,2107.99 309.058,2108.25C309.221,2108.35 309.512,2108.4 309.934,2108.4C310.388,2108.4 310.712,2108.38 310.907,2108.35C311.264,2108.28 311.491,2108.15 311.588,2107.96C311.783,2107.6 311.896,2107.07 311.929,2106.35C311.994,2105.38 312.026,2104.55 312.026,2103.87C312.026,2102.12 311.961,2100.68 311.831,2099.54C311.767,2098.99 311.669,2098.62 311.539,2098.42C311.475,2098.33 311.329,2098.24 311.102,2098.18C310.907,2098.12 310.761,2098.08 310.664,2098.08C310.599,2098.08 310.502,2098.07 310.372,2098.06C310.242,2098.04 310.145,2098.03 310.08,2098.03C310.048,2098.03 309.983,2098.04 309.885,2098.06C309.788,2098.07 309.707,2098.08 309.642,2098.08C309.35,2098.08 309.156,2098.1 309.058,2098.13C308.929,2098.2 308.799,2098.28 308.669,2098.38C308.539,2098.57 308.458,2098.78 308.426,2099.01C308.361,2099.27 308.329,2099.51 308.329,2099.74L308.329,2102.46C308.329,2102.69 308.321,2103.01 308.304,2103.43C308.288,2103.86 308.28,2104.16 308.28,2104.36ZM303.853,2111.41L303.853,2104.31C303.821,2103.63 303.804,2102.61 303.804,2101.24C303.804,2100.11 303.837,2098.38 303.902,2096.04C303.902,2095.52 303.918,2095.16 303.95,2094.97C304.015,2094.51 304.242,2094.22 304.631,2094.09C304.891,2094.03 305.848,2093.95 307.502,2093.85L308.621,2093.85C309.529,2093.85 310.502,2093.93 311.539,2094.09C311.702,2094.13 311.985,2094.17 312.391,2094.22C312.796,2094.26 313.096,2094.3 313.291,2094.34C313.583,2094.4 313.988,2094.51 314.507,2094.68C315.221,2094.9 315.723,2095.33 316.015,2095.94C316.21,2096.33 316.323,2096.66 316.356,2096.91L316.356,2097.21C316.421,2097.66 316.453,2098.02 316.453,2098.28C316.453,2098.44 316.445,2098.71 316.429,2099.08C316.412,2099.45 316.404,2099.74 316.404,2099.93L316.404,2100.22C316.404,2100.29 316.412,2100.39 316.429,2100.51C316.445,2100.64 316.453,2100.74 316.453,2100.81C316.55,2104.12 316.599,2105.87 316.599,2106.06C316.599,2107.07 316.502,2107.88 316.307,2108.49C315.95,2109.5 315.561,2110.23 315.139,2110.68C314.718,2111.14 314.085,2111.59 313.242,2112.05C312.691,2112.3 312.221,2112.43 311.831,2112.43L310.031,2112.43C309.804,2112.43 309.561,2112.47 309.302,2112.53C309.01,2112.6 308.848,2112.64 308.815,2112.68C308.783,2112.71 308.734,2112.79 308.669,2112.92L308.621,2112.97C308.588,2113.03 308.572,2113.15 308.572,2113.31C308.539,2113.57 308.499,2114.36 308.45,2115.67C308.402,2116.98 308.296,2117.82 308.134,2118.18C307.972,2118.5 307.55,2118.66 306.869,2118.66C306.739,2118.66 306.553,2118.67 306.31,2118.69C306.067,2118.7 305.864,2118.71 305.702,2118.71C305.085,2118.71 304.648,2118.64 304.388,2118.51C304.161,2118.42 304.015,2118.09 303.95,2117.54C303.918,2116.86 303.894,2115.78 303.877,2114.28C303.861,2112.79 303.853,2111.83 303.853,2111.41Z" style="fill:rgb(209,240,255);fill-rule:nonzero;"/>
                <path d="M317.669,2109.42C317.669,2108.9 317.685,2108.1 317.718,2107.01C317.75,2105.92 317.767,2105.14 317.767,2104.65C317.767,2104.2 317.742,2103.51 317.694,2102.61C317.645,2101.7 317.621,2101.02 317.621,2100.56C317.621,2099.75 317.653,2099.14 317.718,2098.72C317.783,2098.26 317.929,2097.69 318.156,2097.01C318.318,2096.56 318.529,2096.15 318.788,2095.8C319.048,2095.44 319.421,2095.05 319.907,2094.63C320.264,2094.3 320.669,2094.09 321.123,2094L323.264,2093.85C323.361,2093.85 323.539,2093.84 323.799,2093.83C324.058,2093.81 324.253,2093.8 324.383,2093.8L325.648,2093.8C326.102,2093.8 326.523,2093.85 326.912,2093.95C327.367,2094.05 327.772,2094.26 328.129,2094.58C328.615,2095 328.988,2095.39 329.248,2095.75C329.475,2096.04 329.702,2096.45 329.929,2096.96C330.091,2097.35 330.253,2097.9 330.415,2098.62C330.577,2099.53 330.658,2100.4 330.658,2101.24C330.658,2101.5 330.65,2101.91 330.634,2102.46C330.618,2103.01 330.61,2103.43 330.61,2103.73C330.61,2104.02 330.618,2104.38 330.634,2104.82C330.65,2105.26 330.658,2105.61 330.658,2105.87C330.658,2107.52 330.626,2109.55 330.561,2111.95C330.496,2113.6 330.431,2114.59 330.367,2114.91C330.237,2115.63 329.994,2116.26 329.637,2116.81C329.248,2117.43 328.761,2117.87 328.177,2118.13C327.431,2118.48 326.28,2118.66 324.723,2118.66C324.172,2118.66 323.475,2118.63 322.631,2118.56C321.496,2118.43 320.702,2118.26 320.248,2118.03C319.696,2117.74 319.21,2117.28 318.788,2116.67C318.367,2116.05 318.107,2115.58 318.01,2115.26C317.912,2114.83 317.831,2114.17 317.767,2113.26C317.702,2111.64 317.669,2110.36 317.669,2109.42ZM326.134,2111.51L326.134,2107.38C326.134,2107.18 326.142,2106.9 326.158,2106.52C326.175,2106.15 326.183,2105.88 326.183,2105.72L326.183,2104.99C326.183,2104.96 326.191,2104.91 326.207,2104.85C326.223,2104.78 326.231,2104.73 326.231,2104.7C326.296,2103.27 326.329,2102.19 326.329,2101.44C326.329,2100.24 326.296,2099.4 326.231,2098.91C326.199,2098.39 326.037,2098.07 325.745,2097.94C325.583,2097.84 325.177,2097.79 324.529,2097.79C323.621,2097.79 322.988,2097.89 322.631,2098.08C322.275,2098.28 322.096,2098.83 322.096,2099.74C322.096,2100.16 322.112,2100.79 322.145,2101.63C322.177,2102.48 322.194,2103.11 322.194,2103.53L322.194,2105.28C322.194,2107.03 322.21,2108.45 322.242,2109.51C322.307,2111.4 322.453,2112.64 322.68,2113.26C322.777,2113.52 322.899,2113.71 323.045,2113.82C323.191,2113.93 323.321,2114 323.434,2114.01C323.548,2114.03 323.734,2114.06 323.994,2114.09L324.529,2114.09C325.112,2114.09 325.502,2114.02 325.696,2113.89C325.891,2113.76 326.021,2113.47 326.085,2113.02C326.085,2112.95 326.094,2112.76 326.11,2112.43C326.126,2112.11 326.134,2111.8 326.134,2111.51ZM325.112,2093.85L323.896,2093.85L325.112,2093.85Z" style="fill:rgb(209,240,255);fill-rule:nonzero;"/>
                <path d="M332.069,2106.3L332.069,2108.01L332.069,2106.3ZM332.021,2102.17L332.021,2101.97L332.021,2102.17ZM331.923,2096.14M332.264,2094.34C332.264,2094.34 332.248,2094.35 332.215,2094.39C332.215,2094.39 332.231,2094.37 332.264,2094.34ZM335.134,2094.14L334.307,2094.14L335.134,2094.14ZM339.95,2117.2L339.95,2116.57L339.95,2117.2ZM332.264,2115.26L332.264,2114.14L332.264,2115.26ZM332.021,2106.5L332.021,2103.92C332.021,2103.69 332.012,2103.36 331.996,2102.92C331.98,2102.49 331.972,2102.14 331.972,2101.88L331.972,2098.81C331.907,2097.64 331.875,2096.75 331.875,2096.14C331.875,2095.68 331.907,2095.29 331.972,2094.97C332.004,2094.74 332.102,2094.51 332.264,2094.29C332.329,2094.22 332.377,2094.19 332.41,2094.19C332.475,2094.16 332.588,2094.14 332.75,2094.14L332.994,2094.14C333.156,2094.14 333.415,2094.13 333.772,2094.12C334.129,2094.1 334.404,2094.09 334.599,2094.09C335.312,2094.09 335.783,2094.21 336.01,2094.43C336.204,2094.63 336.334,2095.18 336.399,2096.09C336.431,2096.64 336.448,2097.68 336.448,2099.2C336.448,2099.98 336.464,2101.17 336.496,2102.78C336.529,2104.38 336.545,2105.57 336.545,2106.35C336.545,2108.07 336.594,2109.71 336.691,2111.27C336.723,2111.79 336.739,2112.45 336.739,2113.26C336.739,2113.29 336.748,2113.36 336.764,2113.46C336.78,2113.55 336.788,2113.63 336.788,2113.7L336.788,2114.04C336.821,2114.27 336.885,2114.45 336.983,2114.57C337.08,2114.67 337.177,2114.74 337.275,2114.77C337.307,2114.77 337.664,2114.82 338.345,2114.91C339.026,2114.98 339.464,2115.09 339.658,2115.26C339.885,2115.45 339.999,2115.97 339.999,2116.81L339.999,2116.96C339.999,2117.48 339.95,2117.88 339.853,2118.18C339.756,2118.43 339.415,2118.6 338.831,2118.66C337.794,2118.73 336.918,2118.76 336.204,2118.76L334.988,2118.76C333.658,2118.76 332.848,2118.53 332.556,2118.08C332.426,2117.82 332.329,2117.3 332.264,2116.52C332.231,2116.03 332.215,2115.13 332.215,2113.8L332.215,2111.02C332.215,2110.7 332.183,2110.01 332.118,2108.96C332.053,2107.9 332.021,2107.08 332.021,2106.5Z" style="fill:rgb(209,240,255);fill-rule:nonzero;"/>
                <path d="M341.75,2117.49L341.75,2111.75C341.75,2111.69 341.742,2111.61 341.726,2111.51C341.71,2111.41 341.702,2111.35 341.702,2111.32C341.669,2110.63 341.653,2109.61 341.653,2108.25C341.653,2107.7 341.685,2106.87 341.75,2105.77L341.75,2104.41C341.75,2104.15 341.742,2103.77 341.726,2103.26C341.71,2102.76 341.702,2102.38 341.702,2102.12C341.702,2101.93 341.71,2101.62 341.726,2101.2C341.742,2100.78 341.75,2100.47 341.75,2100.27C341.75,2100.08 341.742,2099.84 341.726,2099.57C341.71,2099.29 341.702,2099.12 341.702,2099.06L341.702,2098.03L341.653,2097.94C341.621,2097.48 341.604,2096.88 341.604,2096.14C341.604,2096.04 341.612,2095.89 341.629,2095.7C341.645,2095.5 341.653,2095.34 341.653,2095.21C341.685,2094.63 341.783,2094.29 341.945,2094.19C342.107,2094.03 342.658,2093.95 343.599,2093.95L343.988,2093.95C345.156,2093.95 345.853,2094.08 346.08,2094.34C346.242,2094.53 346.323,2095 346.323,2095.75C346.323,2096.14 346.315,2096.66 346.299,2097.33C346.283,2097.99 346.275,2098.52 346.275,2098.91C346.275,2099.59 346.283,2100.6 346.299,2101.95C346.315,2103.3 346.323,2104.33 346.323,2105.04C346.323,2106.05 346.315,2107.56 346.299,2109.59C346.283,2111.62 346.275,2113.13 346.275,2114.14C346.275,2114.98 346.258,2115.63 346.226,2116.08C346.226,2116.12 346.21,2116.16 346.177,2116.23L346.177,2116.33C346.177,2116.39 346.185,2116.48 346.202,2116.59C346.218,2116.71 346.226,2116.8 346.226,2116.86C346.226,2116.93 346.234,2117.02 346.25,2117.15C346.267,2117.28 346.275,2117.4 346.275,2117.49C346.275,2118.01 346.194,2118.37 346.031,2118.56C345.934,2118.69 345.707,2118.76 345.35,2118.76L344.912,2118.76C344.718,2118.76 344.394,2118.78 343.939,2118.81C343.485,2118.84 343.145,2118.86 342.918,2118.86C342.496,2118.86 342.204,2118.79 342.042,2118.66C341.848,2118.5 341.75,2118.11 341.75,2117.49Z" style="fill:rgb(209,240,255);fill-rule:nonzero;"/>
                <path d="M354.496,2097.79C353.588,2097.79 352.956,2097.89 352.599,2098.08C352.242,2098.28 352.064,2098.85 352.064,2099.79C352.064,2100.18 352.08,2100.79 352.112,2101.63C352.145,2102.48 352.161,2103.11 352.161,2103.53L352.161,2105.33C352.161,2107.12 352.177,2108.54 352.21,2109.61C352.275,2111.23 352.356,2112.53 352.453,2113.5C352.518,2114.19 352.648,2114.56 352.842,2114.62C352.972,2114.66 353.215,2114.67 353.572,2114.67C353.604,2114.67 353.653,2114.68 353.718,2114.7C353.783,2114.71 353.848,2114.72 353.912,2114.72L354.156,2114.72C354.869,2114.72 355.356,2114.66 355.615,2114.53C355.875,2114.36 356.037,2113.97 356.102,2113.36C356.199,2112.51 356.329,2112.01 356.491,2111.85C356.75,2111.53 357.383,2111.36 358.388,2111.36L358.631,2111.36C359.085,2111.36 359.394,2111.38 359.556,2111.41C360.01,2111.48 360.285,2111.69 360.383,2112.05C360.512,2112.47 360.577,2113.16 360.577,2114.14C360.577,2115.08 360.512,2115.82 360.383,2116.38C360.188,2117.12 359.88,2117.64 359.458,2117.93C359.069,2118.22 358.356,2118.42 357.318,2118.51C356.312,2118.61 355.258,2118.66 354.156,2118.66L352.21,2118.66C351.075,2118.63 350.231,2118.37 349.68,2117.88C349.258,2117.53 348.902,2117.12 348.61,2116.67C348.318,2116.24 348.107,2115.78 347.977,2115.26C347.88,2114.83 347.799,2114.17 347.734,2113.26C347.669,2111.64 347.637,2110.36 347.637,2109.42C347.637,2108.9 347.653,2108.1 347.685,2107.01C347.718,2105.92 347.734,2105.14 347.734,2104.65C347.734,2104.2 347.71,2103.51 347.661,2102.61C347.612,2101.7 347.588,2101.02 347.588,2100.56C347.588,2099.75 347.621,2099.14 347.685,2098.72C347.75,2098.26 347.896,2097.69 348.123,2097.01C348.285,2096.56 348.496,2096.15 348.756,2095.8C349.015,2095.44 349.388,2095.05 349.875,2094.63C350.264,2094.3 350.653,2094.09 351.042,2094C351.399,2093.9 352.015,2093.85 352.891,2093.85L354.253,2093.85C355.356,2093.85 356.426,2093.9 357.464,2094C358.502,2094.09 359.215,2094.29 359.604,2094.58C359.994,2094.84 360.285,2095.36 360.48,2096.14C360.61,2096.69 360.675,2097.43 360.675,2098.38C360.675,2099.45 360.626,2100.14 360.529,2100.47C360.431,2100.82 360.139,2101.03 359.653,2101.1C359.491,2101.13 359.183,2101.15 358.729,2101.15C357.594,2101.15 356.896,2100.99 356.637,2100.66C356.507,2100.5 356.361,2099.91 356.199,2098.91C356.167,2098.42 356.004,2098.12 355.712,2097.99C355.485,2097.86 355.08,2097.79 354.496,2097.79Z" style="fill:rgb(209,240,255);fill-rule:nonzero;"/>
                <path d="M370.356,2109.81M365.88,2115.55C365.88,2113.89 365.912,2111.93 365.977,2109.66C365.685,2108.75 365.442,2108.09 365.248,2107.67C364.858,2106.69 364.485,2105.67 364.129,2104.6C363.837,2103.73 363.577,2103.05 363.35,2102.56C362.475,2100.58 361.972,2098.75 361.842,2097.06C361.842,2097.03 361.834,2096.97 361.818,2096.89C361.802,2096.81 361.794,2096.75 361.794,2096.72L361.794,2096.14C361.794,2095.81 361.81,2095.57 361.842,2095.41C361.939,2094.89 362.215,2094.55 362.669,2094.39C362.896,2094.29 363.675,2094.24 365.004,2094.24C365.523,2094.24 365.848,2094.29 365.977,2094.39C366.139,2094.48 366.237,2094.66 366.269,2094.92C366.367,2095.41 366.415,2095.96 366.415,2096.57L366.415,2097.84C366.415,2097.94 366.658,2098.7 367.145,2100.13C367.177,2100.19 367.218,2100.29 367.267,2100.42C367.315,2100.55 367.356,2100.66 367.388,2100.76C367.421,2100.86 367.437,2100.94 367.437,2101C367.502,2101.23 367.68,2101.68 367.972,2102.36L368.021,2102.56C368.021,2102.53 368.037,2102.51 368.069,2102.51L368.118,2102.41C368.248,2102.12 368.345,2101.85 368.41,2101.59C368.442,2101.55 368.458,2101.5 368.458,2101.41C368.458,2101.33 368.475,2101.28 368.507,2101.24C368.507,2101.21 368.523,2101.18 368.556,2101.15L368.556,2101.05C368.685,2100.66 368.848,2100.26 369.042,2099.83C369.464,2098.96 369.707,2098.03 369.772,2097.06C369.804,2096.83 369.829,2096.57 369.845,2096.26C369.861,2095.95 369.885,2095.72 369.918,2095.55C369.95,2095.39 369.967,2095.28 369.967,2095.21C369.967,2095.18 369.975,2095.14 369.991,2095.09C370.007,2095.04 370.015,2095 370.015,2094.97C370.08,2094.71 370.177,2094.53 370.307,2094.43C370.404,2094.34 370.567,2094.29 370.794,2094.29L371.621,2094.29C371.783,2094.29 371.985,2094.3 372.229,2094.31C372.472,2094.33 372.683,2094.34 372.861,2094.34L373.177,2094.34C373.761,2094.43 374.118,2094.66 374.248,2095.02L374.296,2095.07L374.296,2095.36C374.296,2095.39 374.288,2095.47 374.272,2095.6C374.256,2095.73 374.248,2095.83 374.248,2095.89L374.248,2096.04C374.183,2096.56 374.15,2097.18 374.15,2097.89C374.15,2099.12 374.085,2100.01 373.956,2100.56C373.761,2101.31 373.307,2102.53 372.594,2104.21C372.302,2104.93 371.994,2105.72 371.669,2106.6C371.345,2107.5 370.923,2108.57 370.404,2109.81C370.404,2113.57 370.372,2115.74 370.307,2116.33C370.21,2117.79 369.95,2118.6 369.529,2118.76L369.334,2118.76C368.653,2118.86 368.118,2118.9 367.729,2118.9C367.404,2118.9 367.177,2118.89 367.048,2118.86C366.691,2118.82 366.415,2118.61 366.221,2118.22C365.994,2117.77 365.88,2116.88 365.88,2115.55Z" style="fill:rgb(209,240,255);fill-rule:nonzero;"/>
            </g>
        </g>
    </g>
</svg>
