<?xml version="1.0" encoding="UTF-8" standalone="no"?>
<!DOCTYPE svg PUBLIC "-//W3C//DTD SVG 1.1//EN" "http://www.w3.org/Graphics/SVG/1.1/DTD/svg11.dtd">
<svg width="100%" height="100%" viewBox="0 0 116 49" version="1.1" xmlns="http://www.w3.org/2000/svg" xmlns:xlink="http://www.w3.org/1999/xlink" xml:space="preserve" xmlns:serif="http://www.serif.com/" style="fill-rule:evenodd;clip-rule:evenodd;stroke-linejoin:round;stroke-miterlimit:2;">
    <g transform="matrix(1,0,0,1,-7908.17,-15208.9)">
        <g transform="matrix(0.217379,0,0,0.203943,7817.34,13886.7)">
            <path d="M521.75,6700.55C525.42,6701.53 527.125,6702.57 527.125,6707.45C527.125,6713.05 525.158,6714.03 518.538,6714.09C515.13,6714.09 512.836,6714.03 504.643,6713.77L504.184,6718.58C510.477,6719.76 515.523,6719.89 518.407,6719.89C529.287,6719.89 533.81,6717.87 533.81,6707.52C533.81,6700.81 531.647,6696.64 524.634,6694.75L515.655,6692.28C511.853,6691.3 510.214,6690.07 510.214,6685.44C510.214,6679.45 512.574,6679.19 518.735,6679.19C522.995,6679.19 527.911,6679.39 531.713,6679.52L532.106,6674.77C527.518,6673.66 522.733,6673.4 518.473,6673.4C508.248,6673.4 503.595,6674.83 503.595,6685.25C503.595,6692.08 505.954,6696.19 512.574,6698.01L521.75,6700.55Z" style="fill:white;fill-rule:nonzero;"/>
            <path d="M600.008,6679.97L600.008,6674.18L564.812,6674.18L564.812,6679.97L579.034,6679.97L579.034,6719.1L585.654,6719.1L585.654,6679.97L600.008,6679.97Z" style="fill:white;fill-rule:nonzero;"/>
            <path d="M666.207,6674.18L659.652,6674.18L659.652,6701.78C659.652,6711.03 656.965,6714.16 649.559,6714.16C642.021,6714.16 639.465,6711.03 639.465,6701.78L639.465,6674.18L632.911,6674.18L632.911,6701.78C632.911,6714.94 637.433,6719.95 649.821,6719.95C661.815,6719.95 666.207,6714.94 666.207,6701.78L666.207,6674.18Z" style="fill:white;fill-rule:nonzero;"/>
            <path d="M703.107,6719.1C707.892,6719.43 713.135,6719.69 719.427,6719.69C732.602,6719.69 737.321,6714.09 737.321,6696.64C737.321,6679.19 732.602,6673.59 719.427,6673.59C713.07,6673.59 707.892,6673.85 703.107,6674.18L703.107,6719.1ZM709.661,6679.32C712.545,6679.32 715.691,6679.26 719.427,6679.26C727.686,6679.26 730.373,6683.56 730.373,6696.64C730.373,6709.73 727.686,6714.03 719.427,6714.03C715.757,6714.03 712.48,6713.96 709.661,6713.83L709.661,6679.32Z" style="fill:white;fill-rule:nonzero;"/>
            <rect x="772.91" y="6674.18" width="6.554" height="44.925" style="fill:white;fill-rule:nonzero;"/>
            <path d="M833.079,6673.33C819.774,6673.33 815.054,6679 815.054,6696.64C815.054,6714.29 819.774,6719.95 833.079,6719.95C846.45,6719.95 851.169,6714.29 851.169,6696.64C851.169,6679 846.45,6673.33 833.079,6673.33ZM833.079,6679.13C841.599,6679.13 844.287,6683.36 844.287,6696.64C844.287,6709.92 841.599,6714.16 833.079,6714.16C824.624,6714.16 821.936,6709.92 821.936,6696.64C821.936,6683.36 824.624,6679.13 833.079,6679.13Z" style="fill:white;fill-rule:nonzero;"/>
        </g>
        <g transform="matrix(0.46841,0,0,0.597411,7673.57,11225.2)">
            <path d="M509.421,6706.08L509.421,6704.59L509.421,6706.08ZM501.184,6714.79C501.184,6714.97 501.198,6715.22 501.228,6715.54C501.258,6715.86 501.272,6716.08 501.272,6716.2C501.272,6716.03 501.258,6715.7 501.228,6715.23C501.198,6714.76 501.184,6714.35 501.184,6714L501.184,6714.79ZM501.184,6702.03L501.184,6704.15L501.184,6702.03ZM508.978,6678.28L508.978,6677.31L508.978,6678.28ZM516.329,6676.43L516.329,6677.22L516.329,6676.43ZM501.095,6714.79C501.095,6714.5 501.11,6714.06 501.139,6713.47C501.169,6712.89 501.184,6712.45 501.184,6712.15L501.184,6708.02C501.184,6707.55 501.169,6706.82 501.139,6705.82C501.11,6704.82 501.095,6704.06 501.095,6703.53C501.095,6702.83 501.11,6701.73 501.139,6700.23C501.169,6698.74 501.184,6697.61 501.184,6696.84L501.184,6691.83C501.066,6689.37 501.007,6687.49 501.007,6686.2C501.007,6685.55 500.977,6684.59 500.918,6683.3C500.859,6682 500.829,6681.01 500.829,6680.3C500.829,6677.96 500.977,6676.26 501.272,6675.2C501.331,6674.79 501.597,6674.35 502.069,6673.88C502.424,6673.53 502.748,6673.32 503.044,6673.26C503.516,6673.15 503.959,6673.09 504.372,6673.09C506.026,6673.09 507.148,6673.21 507.738,6673.44C508.328,6673.68 508.712,6674.2 508.889,6675.02C509.008,6675.61 509.067,6676.55 509.067,6677.84C509.067,6678.19 509.052,6678.73 509.022,6679.47C508.993,6680.2 508.978,6680.77 508.978,6681.18L508.978,6684C509.096,6686.46 509.214,6688.07 509.332,6688.84C509.45,6689.95 509.805,6690.54 510.395,6690.6C510.631,6690.66 510.927,6690.7 511.281,6690.73C511.635,6690.76 512.034,6690.79 512.477,6690.82C512.919,6690.85 513.259,6690.86 513.495,6690.86L515.178,6690.86C515.65,6690.8 516.005,6690.63 516.241,6690.33C516.359,6690.16 516.477,6689.81 516.595,6689.28L516.595,6687.43C516.595,6687.31 516.58,6687.15 516.551,6686.95C516.521,6686.74 516.507,6686.58 516.507,6686.46C516.448,6685.82 516.403,6684.85 516.374,6683.56C516.344,6682.27 516.329,6681.3 516.329,6680.65C516.329,6680.3 516.315,6679.78 516.285,6679.07C516.256,6678.37 516.241,6677.84 516.241,6677.49C516.241,6675.61 516.477,6674.41 516.949,6673.88C517.186,6673.53 518.071,6673.29 519.607,6673.18C519.843,6673.18 520.227,6673.15 520.758,6673.09C521.289,6673.03 521.673,6673 521.909,6673C523.149,6673 523.858,6673.38 524.035,6674.14C524.33,6675.49 524.478,6677.99 524.478,6681.62C524.478,6683.15 524.419,6685.41 524.301,6688.4C524.183,6691.39 524.124,6693.62 524.124,6695.09L524.124,6696.84C524.124,6697.72 524.183,6698.96 524.301,6700.54C524.419,6702.12 524.478,6703.36 524.478,6704.24L524.478,6708.19C524.478,6708.66 524.537,6709.7 524.655,6711.32C524.773,6712.93 524.832,6714.15 524.832,6714.97C524.832,6715.73 524.744,6716.38 524.567,6716.9C524.389,6717.37 523.799,6717.67 522.795,6717.78C522.618,6717.78 522.278,6717.8 521.777,6717.83C521.275,6717.86 520.906,6717.87 520.669,6717.87C518.957,6717.87 517.835,6717.67 517.304,6717.26C516.949,6716.96 516.772,6716.38 516.772,6715.5L516.772,6715.41C516.772,6713.53 516.684,6711.68 516.507,6709.87C516.388,6708.34 516.329,6706.82 516.329,6705.29L516.329,6703.36C516.329,6702.24 516.3,6701.45 516.241,6700.98C516.182,6699.81 515.96,6699.06 515.577,6698.74C515.193,6698.41 514.44,6698.25 513.318,6698.25L512.787,6698.25C512.728,6698.25 512.609,6698.27 512.432,6698.3C512.255,6698.32 512.108,6698.34 511.989,6698.34C511.871,6698.34 511.724,6698.36 511.547,6698.38C511.369,6698.41 511.251,6698.43 511.192,6698.43C510.366,6698.55 509.834,6698.84 509.598,6699.31C509.539,6699.37 509.509,6699.48 509.509,6699.66L509.509,6700.01C509.509,6700.19 509.495,6700.44 509.465,6700.76C509.436,6701.08 509.421,6701.45 509.421,6701.86L509.421,6702.21C509.421,6702.51 509.436,6702.99 509.465,6703.66C509.495,6704.34 509.509,6704.85 509.509,6705.2C509.509,6705.73 509.495,6706.44 509.465,6707.31C509.436,6708.19 509.421,6708.87 509.421,6709.34L509.421,6710.39C509.421,6710.8 509.436,6711.46 509.465,6712.37C509.495,6713.28 509.509,6713.94 509.509,6714.35C509.509,6715.82 509.391,6716.82 509.155,6717.35C508.978,6717.81 508.299,6718.05 507.118,6718.05C506.882,6718.05 506.424,6718.06 505.745,6718.09C505.066,6718.12 504.579,6718.14 504.284,6718.14C503.634,6718.14 502.955,6718.08 502.247,6717.96C501.715,6717.84 501.39,6717.46 501.272,6716.82C501.154,6715.88 501.095,6715.2 501.095,6714.79Z" style="fill:white;fill-rule:nonzero;"/>
            <path d="M538.561,6686.11C538.502,6686.76 538.472,6687.75 538.472,6689.1C538.472,6689.51 538.487,6690.16 538.517,6691.04C538.546,6691.92 538.561,6692.56 538.561,6692.97C538.561,6693.15 538.546,6693.4 538.517,6693.72C538.487,6694.04 538.472,6694.29 538.472,6694.47C538.472,6695 538.487,6695.54 538.517,6696.1C538.546,6696.65 538.561,6696.99 538.561,6697.11C538.561,6697.23 538.576,6697.39 538.605,6697.59C538.635,6697.8 538.649,6697.93 538.649,6697.99C538.768,6698.46 538.915,6698.75 539.092,6698.87C539.151,6698.93 539.24,6698.96 539.358,6698.96C539.889,6699.13 540.303,6699.22 540.598,6699.22L541.927,6699.22C542.635,6699.22 543.108,6699.19 543.344,6699.13C543.698,6699.07 543.964,6698.99 544.141,6698.87C544.318,6698.75 544.436,6698.46 544.495,6697.99C544.554,6697.52 544.584,6696.52 544.584,6695L544.584,6694.12C544.584,6693.77 544.598,6693.18 544.628,6692.36C544.658,6691.54 544.672,6690.95 544.672,6690.6L544.672,6689.19C544.672,6688.6 544.643,6687.78 544.584,6686.73C544.525,6685.67 544.495,6684.85 544.495,6684.26L544.495,6682.33C544.495,6682.21 544.407,6681.98 544.229,6681.62C544.052,6681.33 543.787,6681.12 543.432,6681.01L543.078,6681.01C542.96,6680.95 542.768,6680.92 542.502,6680.92L541.927,6680.92C541.868,6680.92 541.808,6680.9 541.749,6680.88C541.69,6680.85 541.631,6680.83 541.572,6680.83L540.598,6680.83C540.126,6680.95 539.801,6681.04 539.624,6681.1C539.328,6681.21 539.122,6681.51 539.004,6681.98C538.886,6682.62 538.738,6684 538.561,6686.11ZM530.412,6698.78L530.412,6695.44C530.412,6695.03 530.442,6694.43 530.501,6693.63C530.56,6692.84 530.589,6692.24 530.589,6691.83C530.589,6691.36 530.575,6690.63 530.545,6689.63C530.516,6688.63 530.501,6687.87 530.501,6687.34C530.501,6685.41 530.619,6683.15 530.855,6680.57C530.973,6679.39 531.032,6678.6 531.032,6678.19C531.032,6677.31 531.062,6676.78 531.121,6676.61C531.298,6675.79 531.682,6675.08 532.272,6674.5C532.981,6673.79 534.103,6673.44 535.638,6673.44L537.055,6673.44C537.468,6673.44 538.074,6673.43 538.871,6673.4C539.668,6673.37 540.273,6673.35 540.687,6673.35C541.454,6673.35 542.576,6673.4 544.052,6673.48C545.528,6673.57 546.621,6673.62 547.329,6673.62C548.983,6673.62 550.134,6673.88 550.784,6674.41C551.256,6674.82 551.64,6675.44 551.935,6676.26C552.23,6677.08 552.437,6679.19 552.555,6682.59C552.732,6687.52 552.821,6690.16 552.821,6690.51C552.821,6692.15 552.762,6694.45 552.644,6697.42C552.526,6700.38 552.467,6702.33 552.467,6703.27L552.467,6709.07C552.585,6711.65 552.703,6713.44 552.821,6714.44C552.88,6714.79 552.909,6715.29 552.909,6715.94C552.909,6716.88 552.644,6717.49 552.112,6717.78C551.522,6718.14 550.37,6718.31 548.658,6718.31L547.064,6718.31C546.001,6718.31 545.351,6717.87 545.115,6716.99C545.056,6716.64 544.938,6715.73 544.761,6714.27C544.761,6714.27 544.672,6712.86 544.495,6710.04C544.377,6708.11 544.111,6706.9 543.698,6706.44C543.462,6706.08 543.078,6705.88 542.547,6705.82L541.395,6705.82C541.395,6705.82 540.864,6705.91 539.801,6706.08C539.092,6706.2 538.679,6706.32 538.561,6706.44C538.384,6706.61 538.295,6706.79 538.295,6706.96L538.295,6708.02C538.295,6708.66 538.31,6709.76 538.339,6711.32C538.369,6712.87 538.384,6714 538.384,6714.7L538.384,6715.32C538.384,6716.67 538.177,6717.49 537.764,6717.78C537.35,6718.02 536.76,6718.14 535.992,6718.14C535.756,6718.14 535.343,6718.12 534.752,6718.09C534.162,6718.06 533.719,6718.05 533.424,6718.05C532.951,6718.05 532.42,6717.99 531.829,6717.87C531.416,6717.76 531.091,6717.57 530.855,6717.3C530.619,6717.04 530.442,6716.63 530.324,6716.07C530.206,6715.51 530.132,6715.07 530.102,6714.75C530.073,6714.43 530.058,6713.87 530.058,6713.08L530.058,6711.54C530.058,6711.19 530.043,6710.69 530.014,6710.04C529.984,6709.4 529.969,6708.93 529.969,6708.63C529.969,6707.87 530.028,6706.79 530.147,6705.38L530.147,6703.97C530.147,6703.74 530.161,6703.41 530.191,6703C530.22,6702.59 530.235,6702.3 530.235,6702.12L530.235,6701.07C530.235,6700.6 530.294,6699.84 530.412,6698.78ZM538.295,6716.11L538.295,6714.27L538.295,6716.11ZM535.372,6718.05L536.524,6718.05L535.372,6718.05Z" style="fill:white;fill-rule:nonzero;"/>
            <path d="M559.109,6695.53L559.109,6698.6L559.109,6695.53ZM559.021,6688.05L559.021,6687.69L559.021,6688.05ZM558.844,6677.14M559.464,6673.88C559.464,6673.88 559.434,6673.91 559.375,6673.97C559.375,6673.97 559.405,6673.94 559.464,6673.88ZM564.689,6673.53L563.184,6673.53L564.689,6673.53ZM573.458,6715.23L573.458,6714.09L573.458,6715.23ZM559.464,6711.71L559.464,6709.69L559.464,6711.71ZM559.021,6695.88L559.021,6691.21C559.021,6690.8 559.006,6690.2 558.977,6689.41C558.947,6688.62 558.932,6687.99 558.932,6687.52L558.932,6681.98C558.814,6679.86 558.755,6678.25 558.755,6677.14C558.755,6676.32 558.814,6675.61 558.932,6675.02C558.991,6674.61 559.168,6674.2 559.464,6673.79C559.582,6673.68 559.67,6673.62 559.729,6673.62C559.848,6673.56 560.054,6673.53 560.349,6673.53L560.792,6673.53C561.088,6673.53 561.56,6673.51 562.209,6673.48C562.859,6673.45 563.361,6673.44 563.715,6673.44C565.014,6673.44 565.87,6673.65 566.284,6674.06C566.638,6674.41 566.874,6675.4 566.992,6677.05C567.051,6678.05 567.081,6679.92 567.081,6682.68C567.081,6684.09 567.11,6686.24 567.169,6689.15C567.229,6692.05 567.258,6694.2 567.258,6695.61C567.258,6698.72 567.347,6701.68 567.524,6704.5C567.583,6705.44 567.612,6706.64 567.612,6708.11C567.612,6708.16 567.627,6708.28 567.657,6708.46C567.686,6708.63 567.701,6708.78 567.701,6708.9L567.701,6709.51C567.76,6709.93 567.878,6710.25 568.055,6710.48C568.232,6710.66 568.409,6710.78 568.587,6710.83C568.646,6710.83 569.295,6710.92 570.535,6711.1C571.775,6711.22 572.572,6711.42 572.927,6711.71C573.34,6712.07 573.547,6713 573.547,6714.53L573.547,6714.79C573.547,6715.73 573.458,6716.47 573.281,6716.99C573.104,6717.46 572.484,6717.76 571.421,6717.87C569.531,6717.99 567.937,6718.05 566.638,6718.05L564.424,6718.05C562.003,6718.05 560.527,6717.64 559.995,6716.82C559.759,6716.35 559.582,6715.41 559.464,6714C559.405,6713.12 559.375,6711.48 559.375,6709.07L559.375,6704.06C559.375,6703.47 559.316,6702.23 559.198,6700.32C559.08,6698.41 559.021,6696.93 559.021,6695.88Z" style="fill:white;fill-rule:nonzero;"/>
            <path d="M588.515,6688.93C588.692,6689.4 589.194,6689.63 590.021,6689.63C590.493,6689.63 591.231,6689.61 592.235,6689.59C593.239,6689.56 593.977,6689.54 594.449,6689.54C596.162,6689.54 597.284,6689.63 597.815,6689.81C598.465,6690.04 598.878,6690.54 599.055,6691.3C599.173,6691.77 599.232,6692.68 599.232,6694.03L599.232,6694.12C599.232,6695.41 599.085,6696.2 598.789,6696.49C598.435,6696.84 597.609,6697.08 596.309,6697.2C595.778,6697.26 595.01,6697.28 594.007,6697.28C593.593,6697.28 593.032,6697.26 592.324,6697.2C591.615,6697.14 591.054,6697.11 590.641,6697.11C589.637,6697.11 588.958,6697.34 588.604,6697.81C588.309,6698.28 588.161,6699.13 588.161,6700.36C588.161,6701.01 588.19,6701.92 588.249,6703.09C588.309,6704.26 588.338,6705.14 588.338,6705.73C588.338,6707.08 588.397,6708.81 588.515,6710.92C588.633,6712.1 588.692,6712.94 588.692,6713.47C588.692,6713.59 588.678,6713.77 588.648,6714C588.619,6714.24 588.604,6714.41 588.604,6714.53C588.545,6715.88 588.161,6716.76 587.452,6717.17C587.039,6717.4 586.065,6717.58 584.529,6717.7L583.821,6717.7C583.585,6717.7 583.23,6717.64 582.758,6717.52C581.872,6717.29 581.252,6716.76 580.898,6715.94C580.426,6714.88 580.189,6712.1 580.189,6707.58C580.189,6706.58 580.101,6705.14 579.924,6703.27C579.747,6701.39 579.658,6700.07 579.658,6699.31L579.658,6692.89C579.658,6691.95 579.629,6690.54 579.569,6688.66C579.51,6686.78 579.481,6685.38 579.481,6684.44C579.481,6682.33 579.54,6680.8 579.658,6679.86C579.717,6679.39 579.747,6678.69 579.747,6677.75C579.747,6676.7 579.806,6675.96 579.924,6675.55C580.16,6674.73 580.691,6674.17 581.518,6673.88C582.049,6673.7 582.935,6673.56 584.175,6673.44C587.069,6673.21 591.881,6673.09 598.612,6673.09C599.498,6673.09 600.118,6673.12 600.472,6673.18C601.24,6673.29 601.712,6673.56 601.889,6673.97C602.067,6674.38 602.155,6675.08 602.155,6676.08C602.155,6677.66 602.096,6678.75 601.978,6679.34C601.919,6680.1 601.565,6680.57 600.915,6680.74C600.443,6680.86 599.35,6680.92 597.638,6680.92C595.276,6680.92 592.944,6681.01 590.641,6681.18C589.342,6681.3 588.574,6681.59 588.338,6682.06C588.102,6682.53 587.984,6683.38 587.984,6684.61C587.984,6686.73 588.161,6688.16 588.515,6688.93ZM581.518,6673.88M585.061,6717.52M588.604,6713.39M588.072,6700.36" style="fill:white;fill-rule:nonzero;"/>
        </g>
        <g transform="matrix(0.46841,0,0,0.597411,7724.79,11222.4)">
            <path d="M501.095,6723.79C501.095,6723.5 501.11,6723.06 501.139,6722.47C501.169,6721.89 501.184,6721.45 501.184,6721.15L501.184,6717.02C501.184,6716.55 501.169,6715.82 501.139,6714.82C501.11,6713.82 501.095,6713.06 501.095,6712.53C501.095,6711.83 501.11,6710.73 501.139,6709.23C501.169,6707.74 501.184,6706.61 501.184,6705.84L501.184,6691.83C501.066,6689.37 501.007,6687.49 501.007,6686.2C501.007,6685.55 500.977,6684.59 500.918,6683.3C500.859,6682 500.829,6681.01 500.829,6680.3C500.829,6677.96 500.977,6676.26 501.272,6675.2C501.331,6674.79 501.597,6674.35 502.069,6673.88C502.424,6673.53 502.748,6673.32 503.044,6673.26C503.516,6673.15 503.959,6673.09 504.372,6673.09C506.026,6673.09 507.148,6673.21 507.738,6673.44C508.328,6673.68 632.162,6673.29 633.697,6673.18C633.933,6673.18 634.317,6673.15 634.849,6673.09C635.38,6673.03 635.764,6673 636,6673C637.24,6673 637.949,6673.38 638.126,6674.14C638.421,6675.49 638.569,6677.99 638.569,6681.62C638.569,6683.15 638.51,6685.41 638.391,6688.4C638.273,6691.39 638.214,6702.62 638.214,6704.08L638.214,6705.84C638.214,6706.72 638.273,6707.95 638.391,6709.54C638.51,6711.12 638.569,6712.35 638.569,6713.23L638.569,6717.19C638.569,6717.66 638.628,6718.7 638.746,6720.32C638.864,6721.93 638.923,6723.15 638.923,6723.97C638.923,6724.73 638.834,6725.38 638.657,6725.9C638.48,6726.37 637.89,6726.67 636.886,6726.78C636.709,6726.78 636.369,6726.8 635.867,6726.83C635.365,6726.86 634.996,6726.87 634.76,6726.87C633.048,6726.87 506.424,6727.06 505.745,6727.09C505.066,6727.12 504.579,6727.14 504.284,6727.14C503.634,6727.14 502.955,6727.08 502.247,6726.96C501.715,6726.84 501.39,6726.46 501.272,6725.82C501.154,6724.88 501.095,6724.2 501.095,6723.79ZM569.245,6705.84C569.245,6707.54 569.304,6709.86 569.422,6712.79C569.54,6714.44 569.688,6715.64 569.865,6716.4C570.042,6716.99 570.515,6717.84 571.282,6718.95C572.05,6720.07 572.936,6720.89 573.94,6721.42C574.766,6721.83 576.213,6722.15 578.28,6722.39C579.815,6722.5 581.084,6722.56 582.088,6722.56C584.922,6722.56 587.019,6722.24 588.377,6721.59C589.44,6721.12 590.325,6720.33 591.034,6719.22C591.683,6718.22 592.126,6717.08 592.362,6715.79C592.48,6715.2 592.599,6713.41 592.717,6710.42C592.835,6706.08 592.894,6702.41 592.894,6699.42C592.894,6698.95 592.879,6698.32 592.85,6697.53C592.82,6696.74 592.805,6696.08 592.805,6695.55C592.805,6695.02 592.82,6694.26 592.85,6693.26C592.879,6692.27 592.894,6691.53 592.894,6691.06C592.894,6689.54 592.746,6687.95 592.451,6686.31C592.156,6685.02 591.86,6684.02 591.565,6683.32C591.152,6682.38 590.739,6681.65 590.325,6681.12C589.853,6680.48 589.174,6679.77 588.288,6679.01C587.639,6678.42 586.9,6678.04 586.074,6677.86C585.365,6677.69 584.598,6677.6 583.771,6677.6L581.468,6677.6C581.232,6677.6 580.878,6677.61 580.405,6677.64C579.933,6677.67 579.608,6677.69 579.431,6677.69L575.534,6677.95C574.707,6678.13 573.969,6678.51 573.32,6679.1C572.434,6679.86 571.755,6680.56 571.282,6681.21C570.81,6681.85 570.426,6682.59 570.131,6683.41C569.718,6684.64 569.452,6685.67 569.334,6686.49C569.216,6687.25 569.157,6688.36 569.157,6689.83C569.157,6690.65 569.201,6691.88 569.29,6693.53C569.378,6695.17 569.422,6696.4 569.422,6697.22C569.422,6698.1 569.393,6699.52 569.334,6701.49C569.275,6703.45 569.245,6704.9 569.245,6705.84ZM584.657,6709.63C584.657,6710.15 584.642,6710.71 584.612,6711.3C584.583,6711.89 584.568,6712.24 584.568,6712.35C584.45,6713.18 584.214,6713.7 583.86,6713.94C583.505,6714.17 582.797,6714.29 581.734,6714.29L580.76,6714.29C580.287,6714.23 579.948,6714.19 579.741,6714.16C579.534,6714.13 579.298,6714.01 579.032,6713.81C578.767,6713.6 578.545,6713.26 578.368,6712.79C577.955,6711.68 577.689,6709.42 577.571,6706.02C577.512,6704.08 577.482,6701.53 577.482,6698.36L577.482,6695.2C577.482,6694.44 577.453,6693.29 577.394,6691.77C577.335,6690.24 577.305,6689.1 577.305,6688.34C577.305,6686.69 577.63,6685.69 578.28,6685.34C578.929,6684.99 580.08,6684.82 581.734,6684.82C582.915,6684.82 583.653,6684.9 583.948,6685.08C584.48,6685.31 584.775,6685.9 584.834,6686.84C584.952,6687.72 585.011,6689.24 585.011,6691.41C585.011,6692.76 584.952,6694.73 584.834,6697.31C584.834,6697.37 584.819,6697.46 584.79,6697.57C584.76,6697.69 584.745,6697.78 584.745,6697.84L584.745,6699.16C584.745,6699.45 584.73,6699.93 584.701,6700.61C584.671,6701.28 584.657,6701.8 584.657,6702.15L584.657,6709.63ZM607.242,6705.4C607.538,6705.4 608.01,6705.77 608.66,6706.5C609.309,6707.24 609.959,6708.13 610.608,6709.19C611.317,6710.42 611.819,6711.33 612.114,6711.91C613,6713.5 613.472,6714.29 613.531,6714.29C613.59,6714.29 613.856,6713.85 614.328,6712.97C614.564,6712.62 614.83,6712.18 615.125,6711.65C615.42,6711.12 615.598,6710.77 615.657,6710.6C615.893,6710.24 616.04,6710.01 616.1,6709.89C616.159,6709.66 616.277,6709.42 616.454,6709.19C617.34,6707.72 618.137,6706.66 618.845,6706.02C619.259,6705.61 619.583,6705.4 619.82,6705.4C620.056,6705.4 620.174,6705.73 620.174,6706.37C620.174,6706.43 620.159,6706.69 620.13,6707.16C620.1,6707.63 620.085,6708.07 620.085,6708.48C620.085,6708.66 620.07,6709.29 620.041,6710.38C620.011,6711.46 619.997,6712.38 619.997,6713.15C619.997,6717.19 620.026,6719.39 620.085,6719.74C620.262,6721.09 620.528,6721.91 620.882,6722.21C621.178,6722.44 622.063,6722.59 623.54,6722.65L624.957,6722.65C626.61,6722.65 627.643,6722.44 628.057,6722.03C628.352,6721.62 628.5,6721.03 628.5,6720.27L628.5,6719.48C628.5,6719.36 628.485,6719.2 628.455,6719C628.426,6718.79 628.411,6718.66 628.411,6718.6L628.411,6697.93C628.411,6696.69 628.426,6695.36 628.455,6693.92C628.485,6692.48 628.5,6691.06 628.5,6689.65L628.5,6684.9C628.441,6681.56 628.293,6679.68 628.057,6679.27C627.702,6678.63 627.053,6678.3 626.108,6678.3C624.691,6678.3 623.421,6679.24 622.3,6681.12C621.591,6682.41 621,6683.44 620.528,6684.2C619.288,6686.25 618.166,6688.25 617.162,6690.18C616.808,6690.89 616.218,6691.99 615.391,6693.48C614.564,6694.98 614.033,6695.93 613.797,6696.34C613.738,6696.52 613.649,6696.66 613.531,6696.78C613.531,6696.72 613.339,6696.37 612.955,6695.73C612.571,6695.08 612.084,6694.2 611.494,6693.09C610.903,6691.97 610.372,6691 609.9,6690.18C609.427,6689.3 608.364,6687.43 606.711,6684.55C606.002,6683.26 605.589,6682.53 605.471,6682.35C604.585,6680.83 603.995,6679.89 603.7,6679.54C602.991,6678.72 602.105,6678.3 601.042,6678.3C599.684,6678.3 598.917,6678.83 598.74,6679.89L598.74,6680.15C598.68,6680.56 598.651,6681.71 598.651,6683.58C598.651,6684.17 598.636,6685.15 598.607,6686.53C598.577,6687.91 598.562,6688.95 598.562,6689.65C598.562,6692.18 598.592,6693.99 598.651,6695.11L598.651,6716.84C598.651,6717.14 598.636,6717.55 598.607,6718.07C598.577,6718.6 598.562,6719.01 598.562,6719.31L598.562,6721.15L598.651,6721.24C598.769,6721.77 598.887,6722.06 599.005,6722.12L599.094,6722.12C599.33,6722.36 599.92,6722.53 600.865,6722.65L602.105,6722.65C603.995,6722.65 605.176,6722.56 605.648,6722.39C606.475,6722.15 606.918,6721.03 606.977,6719.04L606.977,6708.13C606.977,6707.9 606.962,6707.6 606.932,6707.25C606.903,6706.9 606.888,6706.66 606.888,6706.55C606.888,6705.78 607.006,6705.4 607.242,6705.4ZM540.548,6705.84C540.548,6707.54 540.607,6709.86 540.725,6712.79C540.843,6714.44 540.991,6715.64 541.168,6716.4C541.345,6716.99 541.818,6717.84 542.585,6718.95C543.353,6720.07 544.239,6720.89 545.242,6721.42C546.069,6721.83 547.516,6722.15 549.582,6722.39C551.118,6722.5 552.387,6722.56 553.391,6722.56C556.225,6722.56 558.321,6722.24 559.68,6721.59C560.742,6721.12 561.628,6720.33 562.337,6719.22C562.986,6718.22 563.429,6717.08 563.665,6715.79C563.783,6715.2 563.901,6713.41 564.02,6710.42C564.138,6706.08 564.197,6702.41 564.197,6699.42C564.197,6698.95 564.182,6698.32 564.152,6697.53C564.123,6696.74 564.108,6696.08 564.108,6695.55C564.108,6695.02 564.123,6694.26 564.152,6693.26C564.182,6692.27 564.197,6691.53 564.197,6691.06C564.197,6689.54 564.049,6687.95 563.754,6686.31C563.459,6685.02 563.163,6684.02 562.868,6683.32C562.455,6682.38 562.041,6681.65 561.628,6681.12C561.156,6680.48 560.477,6679.77 559.591,6679.01C558.941,6678.42 558.203,6678.04 557.377,6677.86C556.668,6677.69 555.9,6677.6 555.074,6677.6L552.771,6677.6C552.535,6677.6 552.18,6677.61 551.708,6677.64C551.236,6677.67 550.911,6677.69 550.734,6677.69L546.837,6677.95C546.01,6678.13 545.272,6678.51 544.622,6679.1C543.737,6679.86 543.058,6680.56 542.585,6681.21C542.113,6681.85 541.729,6682.59 541.434,6683.41C541.02,6684.64 540.755,6685.67 540.637,6686.49C540.519,6687.25 540.459,6688.36 540.459,6689.83C540.459,6690.65 540.504,6691.88 540.592,6693.53C540.681,6695.17 540.725,6696.4 540.725,6697.22C540.725,6698.1 540.696,6699.52 540.637,6701.49C540.578,6703.45 540.548,6704.9 540.548,6705.84ZM555.959,6709.63C555.959,6710.15 555.945,6710.71 555.915,6711.3C555.886,6711.89 555.871,6712.24 555.871,6712.35C555.753,6713.18 555.517,6713.7 555.162,6713.94C554.808,6714.17 554.099,6714.29 553.037,6714.29L552.062,6714.29C551.59,6714.23 551.25,6714.19 551.044,6714.16C550.837,6714.13 550.601,6714.01 550.335,6713.81C550.069,6713.6 549.848,6713.26 549.671,6712.79C549.258,6711.68 548.992,6709.42 548.874,6706.02C548.815,6704.08 548.785,6701.53 548.785,6698.36L548.785,6695.2C548.785,6694.44 548.756,6693.29 548.697,6691.77C548.638,6690.24 548.608,6689.1 548.608,6688.34C548.608,6686.69 548.933,6685.69 549.582,6685.34C550.232,6684.99 551.383,6684.82 553.037,6684.82C554.218,6684.82 554.956,6684.9 555.251,6685.08C555.782,6685.31 556.078,6685.9 556.137,6686.84C556.255,6687.72 556.314,6689.24 556.314,6691.41C556.314,6692.76 556.255,6694.73 556.137,6697.31C556.137,6697.37 556.122,6697.46 556.092,6697.57C556.063,6697.69 556.048,6697.78 556.048,6697.84L556.048,6699.16C556.048,6699.45 556.033,6699.93 556.004,6700.61C555.974,6701.28 555.959,6701.8 555.959,6702.15L555.959,6709.63ZM520.531,6714.11C520.531,6713.53 520.56,6713.12 520.619,6712.88C520.738,6712.12 521.18,6711.65 521.948,6711.47C522.775,6711.36 523.572,6711.3 524.339,6711.3L525.579,6711.3C526.17,6711.42 526.524,6711.62 526.642,6711.91C526.997,6712.62 527.174,6713.61 527.174,6714.91L527.174,6716.14C527.174,6716.55 527.159,6717.16 527.129,6717.99C527.1,6718.81 527.085,6719.42 527.085,6719.83C527.085,6720.77 527.321,6721.36 527.794,6721.59C528.266,6721.83 529.122,6721.94 530.362,6721.94C530.599,6721.94 530.894,6721.96 531.248,6721.99C531.602,6722.02 531.868,6722.03 532.045,6722.03C532.163,6722.03 532.37,6722.05 532.665,6722.08C532.96,6722.11 533.197,6722.12 533.374,6722.12C534.082,6722.12 534.555,6721.89 534.791,6721.42C535.204,6720.71 535.411,6719.13 535.411,6716.67L535.411,6713.59C535.411,6712.3 535.175,6711.24 534.702,6710.42C534.584,6710.24 534.186,6709.73 533.507,6708.88C532.828,6708.03 532.429,6707.37 532.311,6706.9L532.311,6706.46C532.311,6706.17 532.34,6705.93 532.399,6705.76C532.459,6705.46 532.695,6705.02 533.108,6704.44C533.167,6704.38 533.241,6704.27 533.329,6704.13C533.418,6703.98 533.492,6703.88 533.551,6703.82C534.437,6702.65 534.968,6701.53 535.145,6700.48C535.204,6700.07 535.234,6699.33 535.234,6698.28C535.234,6698.22 535.145,6695.64 534.968,6690.53L534.968,6688.34C534.968,6688.04 534.983,6687.57 535.012,6686.93C535.042,6686.28 535.057,6685.81 535.057,6685.52C535.057,6683.82 534.791,6682.47 534.259,6681.47C533.787,6680.42 532.842,6679.65 531.425,6679.18C530.48,6678.89 529.742,6678.69 529.211,6678.57C528.857,6678.51 528.325,6678.44 527.617,6678.35C526.908,6678.26 526.406,6678.19 526.111,6678.13C524.221,6677.84 522.45,6677.69 520.797,6677.69L518.671,6677.69C515.719,6677.81 514.006,6677.95 513.534,6678.13C512.825,6678.36 512.412,6678.89 512.294,6679.71C512.235,6680.06 512.205,6680.71 512.205,6681.65C512.205,6682.35 512.176,6683.33 512.117,6684.6C512.058,6685.86 512.013,6687.02 511.984,6688.07C511.954,6689.13 511.939,6690.12 511.939,6691.06C511.939,6692.24 511.999,6694.05 512.117,6696.52L512.117,6700.21C512.117,6700.8 512.102,6701.65 512.072,6702.76C512.043,6703.88 512.028,6704.73 512.028,6705.32C512.028,6705.78 512.043,6706.49 512.072,6707.43C512.102,6708.37 512.117,6709.04 512.117,6709.45C512.117,6710.21 512.131,6711.94 512.161,6714.64C512.19,6717.34 512.235,6719.31 512.294,6720.54C512.412,6721.53 512.648,6722.12 513.002,6722.3C513.475,6722.53 514.272,6722.65 515.394,6722.65C515.689,6722.65 516.073,6722.63 516.545,6722.6C517.018,6722.57 517.372,6722.56 517.608,6722.56C518.848,6722.56 519.616,6722.27 519.911,6721.68C520.147,6721.15 520.324,6718.89 520.442,6714.91C520.442,6714.85 520.457,6714.73 520.487,6714.55C520.516,6714.38 520.531,6714.23 520.531,6714.11ZM522.657,6685.34C522.716,6685.34 522.789,6685.33 522.878,6685.3C522.967,6685.27 523.04,6685.26 523.099,6685.26C523.867,6685.26 524.399,6685.28 524.694,6685.34C525.402,6685.46 525.875,6685.67 526.111,6685.96C526.347,6686.31 526.524,6686.99 526.642,6687.98C526.819,6689.51 526.908,6692.12 526.908,6695.81C526.908,6697.93 526.879,6699.42 526.819,6700.3C526.76,6701.59 526.554,6702.56 526.199,6703.2C526.081,6703.44 525.963,6703.59 525.845,6703.64C525.727,6703.76 525.609,6703.82 525.491,6703.82C525.432,6703.82 525.343,6703.83 525.225,6703.86C525.107,6703.89 525.019,6703.91 524.959,6703.91C524.664,6703.97 524.221,6704 523.631,6704L522.745,6704C522.332,6704 521.948,6703.91 521.594,6703.73C520.767,6703.26 520.295,6701.97 520.177,6699.86C520.177,6699.74 520.162,6699.51 520.132,6699.16C520.103,6698.81 520.088,6698.48 520.088,6698.19L520.088,6696.43C520.088,6696.08 520.103,6695.55 520.132,6694.85C520.162,6694.14 520.177,6693.61 520.177,6693.26L520.177,6691.77C520.177,6689.65 520.265,6688.07 520.442,6687.02C520.501,6686.6 520.649,6686.22 520.885,6685.87L521.239,6685.52C521.476,6685.4 521.948,6685.34 522.657,6685.34ZM534.899,6684.85C534.906,6684.93 534.914,6685 534.924,6685.08C534.953,6685.31 534.968,6685.52 534.968,6685.69L534.968,6686.05C534.968,6685.81 534.953,6685.52 534.924,6685.17C534.914,6685.05 534.906,6684.95 534.899,6684.85ZM501.184,6723.79C501.184,6723.97 501.198,6724.22 501.228,6724.54C501.258,6724.86 501.272,6725.08 501.272,6725.2C501.272,6725.02 501.258,6724.7 501.228,6724.23C501.198,6723.76 501.184,6723.35 501.184,6723L501.184,6723.79Z" style="fill:white;"/>
        </g>
    </g>
</svg>
