<?xml version="1.0" encoding="UTF-8" standalone="no"?>
<!DOCTYPE svg PUBLIC "-//W3C//DTD SVG 1.1//EN" "http://www.w3.org/Graphics/SVG/1.1/DTD/svg11.dtd">
<svg width="100%" height="100%" viewBox="0 0 256 46" version="1.1" xmlns="http://www.w3.org/2000/svg" xmlns:xlink="http://www.w3.org/1999/xlink" xml:space="preserve" xmlns:serif="http://www.serif.com/" style="fill-rule:evenodd;clip-rule:evenodd;stroke-linecap:round;stroke-linejoin:round;stroke-miterlimit:1.5;">
    <g transform="matrix(1,0,0,1,-35022.4,-17458.4)">
        <g transform="matrix(1.00898,0,0,1.2406,16493.5,-1689.66)">
            <g transform="matrix(0.423246,0,0,0.322138,16678.3,13206)">
                <path d="M4022,7028.76C4008.62,7028.39 4000.1,7026.82 3994.04,7020.34C3986.04,7011.8 3986.04,6998.72 3986.04,6975.2C3986.04,6951.68 3986.04,6938.6 3994.04,6930.06C4000.1,6923.58 4008.62,6922.02 4022,6921.64C4022.71,6921.56 4023.43,6921.52 4024.16,6921.52L4539.91,6921.52C4540.63,6921.52 4541.36,6921.56 4542.07,6921.64C4555.45,6922.02 4563.96,6923.58 4570.03,6930.06C4578.02,6938.6 4578.02,6951.68 4578.02,6975.2C4578.02,6998.72 4578.02,7011.8 4570.03,7020.34C4563.96,7026.82 4555.45,7028.39 4542.07,7028.76C4541.36,7028.84 4540.63,7028.88 4539.91,7028.88L4024.16,7028.88C4023.43,7028.88 4022.71,7028.84 4022,7028.76Z" style="fill:rgb(21,159,228);fill-opacity:0.4;stroke:rgb(21,159,228);stroke-opacity:0.9;stroke-width:6.75px;"/>
            </g>
        </g>
        <g transform="matrix(1.00898,0,0,1.2406,16493.5,-1689.66)">
            <g transform="matrix(1.07371,0,0,0.873248,18179.6,13613.7)">
                <g transform="matrix(36,0,0,36,374.977,2119.34)">
                </g>
                <text x="204.561px" y="2119.34px" style="font-family:'JazzyRabbit';font-size:36px;fill:rgb(209,240,255);">PRIVACY POLICY</text>
            </g>
        </g>
    </g>
</svg>
